solid untitled
facet normal 0.0 0.0 -1.0
outer loop
vertex -16.8433315959156 4.51315709897522 0.0
vertex -16.8433315959156 -4.51315709897521 0.0
vertex -17.4375 0.0 0.0
endloop
endfacet
facet normal 0.0 0.0 -1.0
outer loop
vertex -16.8433315959156 -4.51315709897521 0.0
vertex -16.8433315959156 4.51315709897522 0.0
vertex -15.1013179784911 -8.71875 0.0
endloop
endfacet
facet normal 0.0 0.0 -1.0
outer loop
vertex -15.1013179784911 -8.71875 0.0
vertex -16.8433315959156 4.51315709897522 0.0
vertex -15.1013179784911 8.71875000000001 0.0
endloop
endfacet
facet normal 0.0 0.0 -1.0
outer loop
vertex -15.1013179784911 -8.71875 0.0
vertex -15.1013179784911 8.71875000000001 0.0
vertex -12.3301744969404 -12.3301744969404 0.0
endloop
endfacet
facet normal 0.0 0.0 -1.0
outer loop
vertex -12.3301744969404 -12.3301744969404 0.0
vertex -15.1013179784911 8.71875000000001 0.0
vertex -12.3301744969404 12.3301744969404 0.0
endloop
endfacet
facet normal 0.0 0.0 -1.0
outer loop
vertex -12.3301744969404 -12.3301744969404 0.0
vertex -12.3301744969404 12.3301744969404 0.0
vertex -8.71875 -15.1013179784911 0.0
endloop
endfacet
facet normal 0.0 0.0 -1.0
outer loop
vertex -8.71875 -15.1013179784911 0.0
vertex -12.3301744969404 12.3301744969404 0.0
vertex -8.71874999999999 15.1013179784912 0.0
endloop
endfacet
facet normal 0.0 0.0 -1.0
outer loop
vertex -8.71875 -15.1013179784911 0.0
vertex -8.71874999999999 15.1013179784912 0.0
vertex -4.51315709897521 -16.8433315959156 0.0
endloop
endfacet
facet normal 0.0 0.0 -1.0
outer loop
vertex -4.51315709897521 -16.8433315959156 0.0
vertex -8.71874999999999 15.1013179784912 0.0
vertex -4.5131570989752 16.8433315959156 0.0
endloop
endfacet
facet normal 0.0 0.0 -1.0
outer loop
vertex -4.51315709897521 -16.8433315959156 0.0
vertex -4.5131570989752 16.8433315959156 0.0
vertex -1.0677389280066e-015 -17.4375 0.0
endloop
endfacet
facet normal 0.0 0.0 -1.0
outer loop
vertex -1.0677389280066e-015 -17.4375 0.0
vertex -4.5131570989752 16.8433315959156 0.0
vertex 3.2032167840198e-015 17.4375 0.0
endloop
endfacet
facet normal 0.0 0.0 -1.0
outer loop
vertex -1.0677389280066e-015 -17.4375 0.0
vertex 3.2032167840198e-015 17.4375 0.0
vertex 4.5131570989752 -16.8433315959156 0.0
endloop
endfacet
facet normal 0.0 0.0 -1.0
outer loop
vertex 4.5131570989752 -16.8433315959156 0.0
vertex 3.2032167840198e-015 17.4375 0.0
vertex 4.51315709897522 16.8433315959156 0.0
endloop
endfacet
facet normal 0.0 0.0 -1.0
outer loop
vertex 4.5131570989752 -16.8433315959156 0.0
vertex 4.51315709897522 16.8433315959156 0.0
vertex 8.71875 -15.1013179784911 0.0
endloop
endfacet
facet normal 0.0 0.0 -1.0
outer loop
vertex 8.71875 -15.1013179784911 0.0
vertex 4.51315709897522 16.8433315959156 0.0
vertex 8.71875000000001 15.1013179784911 0.0
endloop
endfacet
facet normal 0.0 0.0 -1.0
outer loop
vertex 8.71875 -15.1013179784911 0.0
vertex 8.71875000000001 15.1013179784911 0.0
vertex 12.3301744969404 -12.3301744969404 0.0
endloop
endfacet
facet normal 0.0 0.0 -1.0
outer loop
vertex 12.3301744969404 -12.3301744969404 0.0
vertex 8.71875000000001 15.1013179784911 0.0
vertex 12.3301744969404 12.3301744969404 0.0
endloop
endfacet
facet normal 0.0 0.0 -1.0
outer loop
vertex 12.3301744969404 -12.3301744969404 0.0
vertex 12.3301744969404 12.3301744969404 0.0
vertex 15.1013179784911 -8.71875000000001 0.0
endloop
endfacet
facet normal 0.0 0.0 -1.0
outer loop
vertex 15.1013179784911 -8.71875000000001 0.0
vertex 12.3301744969404 12.3301744969404 0.0
vertex 15.1013179784912 8.71874999999999 0.0
endloop
endfacet
facet normal 0.0 0.0 -1.0
outer loop
vertex 15.1013179784911 -8.71875000000001 0.0
vertex 15.1013179784912 8.71874999999999 0.0
vertex 16.8433315959156 -4.51315709897521 0.0
endloop
endfacet
facet normal 0.0 0.0 -1.0
outer loop
vertex 16.8433315959156 -4.51315709897521 0.0
vertex 15.1013179784912 8.71874999999999 0.0
vertex 16.8433315959156 4.5131570989752 0.0
endloop
endfacet
facet normal 0.0 0.0 -1.0
outer loop
vertex 16.8433315959156 -4.51315709897521 0.0
vertex 16.8433315959156 4.5131570989752 0.0
vertex 17.4375 -2.1354778560132e-015 0.0
endloop
endfacet
facet normal -0.866025403784438 0.500000000000001 0.0
outer loop
vertex -15.1013179784911 8.71875000000001 54.0
vertex -16.8433315959156 4.51315709897522 0.0
vertex -16.8433315959156 4.51315709897522 54.0
endloop
endfacet
facet normal -0.965925826289068 0.258819045102521 0.0
outer loop
vertex -16.8433315959156 4.51315709897522 0.0
vertex -15.1013179784911 8.71875000000001 54.0
vertex -15.1013179784911 8.71875000000001 0.0
endloop
endfacet
facet normal -0.965925826289068 0.258819045102521 0.0
outer loop
vertex -16.8433315959156 4.51315709897522 54.0
vertex -17.4375 0.0 0.0
vertex -17.4375 0.0 54.0
endloop
endfacet
facet normal -1.0 1.87133307808585e-016 0.0
outer loop
vertex -17.4375 0.0 0.0
vertex -16.8433315959156 4.51315709897522 54.0
vertex -16.8433315959156 4.51315709897522 0.0
endloop
endfacet
facet normal -1.0 1.87133307808585e-016 0.0
outer loop
vertex -17.4375 0.0 54.0
vertex -16.8433315959156 -4.51315709897521 0.0
vertex -16.8433315959156 -4.51315709897521 54.0
endloop
endfacet
facet normal -0.965925826289068 -0.258819045102521 0.0
outer loop
vertex -16.8433315959156 -4.51315709897521 0.0
vertex -17.4375 0.0 54.0
vertex -17.4375 0.0 0.0
endloop
endfacet
facet normal -0.965925826289068 -0.258819045102521 0.0
outer loop
vertex -16.8433315959156 -4.51315709897521 54.0
vertex -15.1013179784911 -8.71875 0.0
vertex -15.1013179784911 -8.71875 54.0
endloop
endfacet
facet normal -0.866025403784439 -0.5 0.0
outer loop
vertex -15.1013179784911 -8.71875 0.0
vertex -16.8433315959156 -4.51315709897521 54.0
vertex -16.8433315959156 -4.51315709897521 0.0
endloop
endfacet
facet normal -0.866025403784439 -0.5 0.0
outer loop
vertex -15.1013179784911 -8.71875 54.0
vertex -12.3301744969404 -12.3301744969404 0.0
vertex -12.3301744969404 -12.3301744969404 54.0
endloop
endfacet
facet normal -0.707106781186548 -0.707106781186547 0.0
outer loop
vertex -12.3301744969404 -12.3301744969404 0.0
vertex -15.1013179784911 -8.71875 54.0
vertex -15.1013179784911 -8.71875 0.0
endloop
endfacet
facet normal -0.5 -0.866025403784439 0.0
outer loop
vertex -8.71875 -15.1013179784911 54.0
vertex -12.3301744969404 -12.3301744969404 0.0
vertex -8.71875 -15.1013179784911 0.0
endloop
endfacet
facet normal -0.707106781186548 -0.707106781186547 0.0
outer loop
vertex -12.3301744969404 -12.3301744969404 0.0
vertex -8.71875 -15.1013179784911 54.0
vertex -12.3301744969404 -12.3301744969404 54.0
endloop
endfacet
facet normal -0.258819045102521 -0.965925826289068 0.0
outer loop
vertex -4.51315709897521 -16.8433315959156 54.0
vertex -8.71875 -15.1013179784911 0.0
vertex -4.51315709897521 -16.8433315959156 0.0
endloop
endfacet
facet normal -0.5 -0.866025403784439 0.0
outer loop
vertex -8.71875 -15.1013179784911 0.0
vertex -4.51315709897521 -16.8433315959156 54.0
vertex -8.71875 -15.1013179784911 54.0
endloop
endfacet
facet normal -3.38622176034582e-016 -1.0 0.0
outer loop
vertex -1.0677389280066e-015 -17.4375 54.0
vertex -4.51315709897521 -16.8433315959156 0.0
vertex -1.0677389280066e-015 -17.4375 0.0
endloop
endfacet
facet normal -0.258819045102521 -0.965925826289068 0.0
outer loop
vertex -4.51315709897521 -16.8433315959156 0.0
vertex -1.0677389280066e-015 -17.4375 54.0
vertex -4.51315709897521 -16.8433315959156 54.0
endloop
endfacet
facet normal 0.258819045102521 -0.965925826289068 0.0
outer loop
vertex 4.5131570989752 -16.8433315959156 54.0
vertex -1.0677389280066e-015 -17.4375 0.0
vertex 4.5131570989752 -16.8433315959156 0.0
endloop
endfacet
facet normal -3.38622176034582e-016 -1.0 0.0
outer loop
vertex -1.0677389280066e-015 -17.4375 0.0
vertex 4.5131570989752 -16.8433315959156 54.0
vertex -1.0677389280066e-015 -17.4375 54.0
endloop
endfacet
facet normal 0.5 -0.866025403784439 0.0
outer loop
vertex 8.71875 -15.1013179784911 54.0
vertex 4.5131570989752 -16.8433315959156 0.0
vertex 8.71875 -15.1013179784911 0.0
endloop
endfacet
facet normal 0.258819045102521 -0.965925826289068 0.0
outer loop
vertex 4.5131570989752 -16.8433315959156 0.0
vertex 8.71875 -15.1013179784911 54.0
vertex 4.5131570989752 -16.8433315959156 54.0
endloop
endfacet
facet normal 0.707106781186547 -0.707106781186548 0.0
outer loop
vertex 12.3301744969404 -12.3301744969404 54.0
vertex 8.71875 -15.1013179784911 0.0
vertex 12.3301744969404 -12.3301744969404 0.0
endloop
endfacet
facet normal 0.5 -0.866025403784439 0.0
outer loop
vertex 8.71875 -15.1013179784911 0.0
vertex 12.3301744969404 -12.3301744969404 54.0
vertex 8.71875 -15.1013179784911 54.0
endloop
endfacet
facet normal 0.866025403784438 -0.5 0.0
outer loop
vertex 15.1013179784911 -8.71875000000001 0.0
vertex 12.3301744969404 -12.3301744969404 54.0
vertex 12.3301744969404 -12.3301744969404 0.0
endloop
endfacet
facet normal 0.707106781186547 -0.707106781186548 0.0
outer loop
vertex 12.3301744969404 -12.3301744969404 54.0
vertex 15.1013179784911 -8.71875000000001 0.0
vertex 15.1013179784911 -8.71875000000001 54.0
endloop
endfacet
facet normal 0.965925826289068 -0.258819045102521 0.0
outer loop
vertex 16.8433315959156 -4.51315709897521 0.0
vertex 15.1013179784911 -8.71875000000001 54.0
vertex 15.1013179784911 -8.71875000000001 0.0
endloop
endfacet
facet normal 0.866025403784438 -0.5 0.0
outer loop
vertex 15.1013179784911 -8.71875000000001 54.0
vertex 16.8433315959156 -4.51315709897521 0.0
vertex 16.8433315959156 -4.51315709897521 54.0
endloop
endfacet
facet normal 1.0 -2.67333296869407e-016 0.0
outer loop
vertex 17.4375 -2.1354778560132e-015 0.0
vertex 16.8433315959156 -4.51315709897521 54.0
vertex 16.8433315959156 -4.51315709897521 0.0
endloop
endfacet
facet normal 0.965925826289068 -0.258819045102521 0.0
outer loop
vertex 16.8433315959156 -4.51315709897521 54.0
vertex 17.4375 -2.1354778560132e-015 0.0
vertex 17.4375 -2.1354778560132e-015 54.0
endloop
endfacet
facet normal 0.965925826289068 0.258819045102521 0.0
outer loop
vertex 16.8433315959156 4.5131570989752 0.0
vertex 17.4375 -2.1354778560132e-015 54.0
vertex 17.4375 -2.1354778560132e-015 0.0
endloop
endfacet
facet normal 1.0 -2.67333296869407e-016 0.0
outer loop
vertex 17.4375 -2.1354778560132e-015 54.0
vertex 16.8433315959156 4.5131570989752 0.0
vertex 16.8433315959156 4.5131570989752 54.0
endloop
endfacet
facet normal -0.0 -0.0 1.0
outer loop
vertex -16.8433315959156 -4.51315709897521 54.0
vertex -16.8433315959156 4.51315709897522 54.0
vertex -17.4375 0.0 54.0
endloop
endfacet
facet normal -0.0 -0.0 1.0
outer loop
vertex -16.8433315959156 4.51315709897522 54.0
vertex -16.8433315959156 -4.51315709897521 54.0
vertex -15.1013179784911 -8.71875 54.0
endloop
endfacet
facet normal -0.0 -0.0 1.0
outer loop
vertex -16.8433315959156 4.51315709897522 54.0
vertex -15.1013179784911 -8.71875 54.0
vertex -15.1013179784911 8.71875000000001 54.0
endloop
endfacet
facet normal -0.0 -0.0 1.0
outer loop
vertex -15.1013179784911 8.71875000000001 54.0
vertex -15.1013179784911 -8.71875 54.0
vertex -12.3301744969404 -12.3301744969404 54.0
endloop
endfacet
facet normal -0.0 -0.0 1.0
outer loop
vertex -15.1013179784911 8.71875000000001 54.0
vertex -12.3301744969404 -12.3301744969404 54.0
vertex -12.3301744969404 12.3301744969404 54.0
endloop
endfacet
facet normal -0.0 -0.0 1.0
outer loop
vertex -12.3301744969404 12.3301744969404 54.0
vertex -12.3301744969404 -12.3301744969404 54.0
vertex -8.71875 -15.1013179784911 54.0
endloop
endfacet
facet normal -0.0 -0.0 1.0
outer loop
vertex -12.3301744969404 12.3301744969404 54.0
vertex -8.71875 -15.1013179784911 54.0
vertex -8.71874999999999 15.1013179784912 54.0
endloop
endfacet
facet normal -0.0 -0.0 1.0
outer loop
vertex -8.71874999999999 15.1013179784912 54.0
vertex -8.71875 -15.1013179784911 54.0
vertex -4.51315709897521 -16.8433315959156 54.0
endloop
endfacet
facet normal -0.0 -0.0 1.0
outer loop
vertex -8.71874999999999 15.1013179784912 54.0
vertex -4.51315709897521 -16.8433315959156 54.0
vertex -4.5131570989752 16.8433315959156 54.0
endloop
endfacet
facet normal -0.0 -0.0 1.0
outer loop
vertex -4.5131570989752 16.8433315959156 54.0
vertex -4.51315709897521 -16.8433315959156 54.0
vertex -1.0677389280066e-015 -17.4375 54.0
endloop
endfacet
facet normal -0.0 -0.0 1.0
outer loop
vertex -4.5131570989752 16.8433315959156 54.0
vertex -1.0677389280066e-015 -17.4375 54.0
vertex 3.2032167840198e-015 17.4375 54.0
endloop
endfacet
facet normal -0.0 -0.0 1.0
outer loop
vertex 3.2032167840198e-015 17.4375 54.0
vertex -1.0677389280066e-015 -17.4375 54.0
vertex 4.5131570989752 -16.8433315959156 54.0
endloop
endfacet
facet normal -0.0 -0.0 1.0
outer loop
vertex 3.2032167840198e-015 17.4375 54.0
vertex 4.5131570989752 -16.8433315959156 54.0
vertex 4.51315709897522 16.8433315959156 54.0
endloop
endfacet
facet normal -0.0 -0.0 1.0
outer loop
vertex 4.51315709897522 16.8433315959156 54.0
vertex 4.5131570989752 -16.8433315959156 54.0
vertex 8.71875 -15.1013179784911 54.0
endloop
endfacet
facet normal -0.0 -0.0 1.0
outer loop
vertex 4.51315709897522 16.8433315959156 54.0
vertex 8.71875 -15.1013179784911 54.0
vertex 8.71875000000001 15.1013179784911 54.0
endloop
endfacet
facet normal -0.0 -0.0 1.0
outer loop
vertex 8.71875000000001 15.1013179784911 54.0
vertex 8.71875 -15.1013179784911 54.0
vertex 12.3301744969404 -12.3301744969404 54.0
endloop
endfacet
facet normal -0.0 -0.0 1.0
outer loop
vertex 8.71875000000001 15.1013179784911 54.0
vertex 12.3301744969404 -12.3301744969404 54.0
vertex 12.3301744969404 12.3301744969404 54.0
endloop
endfacet
facet normal -0.0 -0.0 1.0
outer loop
vertex 12.3301744969404 12.3301744969404 54.0
vertex 12.3301744969404 -12.3301744969404 54.0
vertex 15.1013179784911 -8.71875000000001 54.0
endloop
endfacet
facet normal -0.0 -0.0 1.0
outer loop
vertex 12.3301744969404 12.3301744969404 54.0
vertex 15.1013179784911 -8.71875000000001 54.0
vertex 15.1013179784912 8.71874999999999 54.0
endloop
endfacet
facet normal -0.0 -0.0 1.0
outer loop
vertex 15.1013179784912 8.71874999999999 54.0
vertex 15.1013179784911 -8.71875000000001 54.0
vertex 16.8433315959156 -4.51315709897521 54.0
endloop
endfacet
facet normal -0.0 -0.0 1.0
outer loop
vertex 15.1013179784912 8.71874999999999 54.0
vertex 16.8433315959156 -4.51315709897521 54.0
vertex 16.8433315959156 4.5131570989752 54.0
endloop
endfacet
facet normal -0.0 -0.0 1.0
outer loop
vertex 16.8433315959156 4.5131570989752 54.0
vertex 16.8433315959156 -4.51315709897521 54.0
vertex 17.4375 -2.1354778560132e-015 54.0
endloop
endfacet
facet normal -0.707106781186547 0.707106781186548 0.0
outer loop
vertex -12.3301744969404 12.3301744969404 54.0
vertex -15.1013179784911 8.71875000000001 0.0
vertex -15.1013179784911 8.71875000000001 54.0
endloop
endfacet
facet normal -0.866025403784438 0.500000000000001 0.0
outer loop
vertex -15.1013179784911 8.71875000000001 0.0
vertex -12.3301744969404 12.3301744969404 54.0
vertex -12.3301744969404 12.3301744969404 0.0
endloop
endfacet
facet normal -0.707106781186547 0.707106781186548 0.0
outer loop
vertex -12.3301744969404 12.3301744969404 54.0
vertex -8.71874999999999 15.1013179784912 0.0
vertex -12.3301744969404 12.3301744969404 0.0
endloop
endfacet
facet normal -0.499999999999999 0.866025403784439 0.0
outer loop
vertex -8.71874999999999 15.1013179784912 0.0
vertex -12.3301744969404 12.3301744969404 54.0
vertex -8.71874999999999 15.1013179784912 54.0
endloop
endfacet
facet normal -0.499999999999999 0.866025403784439 0.0
outer loop
vertex -8.71874999999999 15.1013179784912 54.0
vertex -4.5131570989752 16.8433315959156 0.0
vertex -8.71874999999999 15.1013179784912 0.0
endloop
endfacet
facet normal -0.25881904510252 0.965925826289068 0.0
outer loop
vertex -4.5131570989752 16.8433315959156 0.0
vertex -8.71874999999999 15.1013179784912 54.0
vertex -4.5131570989752 16.8433315959156 54.0
endloop
endfacet
facet normal -0.25881904510252 0.965925826289068 0.0
outer loop
vertex -4.5131570989752 16.8433315959156 54.0
vertex 3.2032167840198e-015 17.4375 0.0
vertex -4.5131570989752 16.8433315959156 0.0
endloop
endfacet
facet normal 1.96044417704232e-016 1.0 0.0
outer loop
vertex 3.2032167840198e-015 17.4375 0.0
vertex -4.5131570989752 16.8433315959156 54.0
vertex 3.2032167840198e-015 17.4375 54.0
endloop
endfacet
facet normal 1.96044417704232e-016 1.0 0.0
outer loop
vertex 3.2032167840198e-015 17.4375 54.0
vertex 4.51315709897522 16.8433315959156 0.0
vertex 3.2032167840198e-015 17.4375 0.0
endloop
endfacet
facet normal 0.258819045102521 0.965925826289068 0.0
outer loop
vertex 4.51315709897522 16.8433315959156 0.0
vertex 3.2032167840198e-015 17.4375 54.0
vertex 4.51315709897522 16.8433315959156 54.0
endloop
endfacet
facet normal 0.258819045102521 0.965925826289068 0.0
outer loop
vertex 4.51315709897522 16.8433315959156 54.0
vertex 8.71875000000001 15.1013179784911 0.0
vertex 4.51315709897522 16.8433315959156 0.0
endloop
endfacet
facet normal 0.500000000000001 0.866025403784438 0.0
outer loop
vertex 8.71875000000001 15.1013179784911 0.0
vertex 4.51315709897522 16.8433315959156 54.0
vertex 8.71875000000001 15.1013179784911 54.0
endloop
endfacet
facet normal 0.500000000000001 0.866025403784438 0.0
outer loop
vertex 8.71875000000001 15.1013179784911 54.0
vertex 12.3301744969404 12.3301744969404 0.0
vertex 8.71875000000001 15.1013179784911 0.0
endloop
endfacet
facet normal 0.707106781186548 0.707106781186547 0.0
outer loop
vertex 12.3301744969404 12.3301744969404 0.0
vertex 8.71875000000001 15.1013179784911 54.0
vertex 12.3301744969404 12.3301744969404 54.0
endloop
endfacet
facet normal 0.707106781186548 0.707106781186547 0.0
outer loop
vertex 12.3301744969404 12.3301744969404 0.0
vertex 15.1013179784912 8.71874999999999 54.0
vertex 15.1013179784912 8.71874999999999 0.0
endloop
endfacet
facet normal 0.866025403784439 0.5 0.0
outer loop
vertex 15.1013179784912 8.71874999999999 54.0
vertex 12.3301744969404 12.3301744969404 0.0
vertex 12.3301744969404 12.3301744969404 54.0
endloop
endfacet
facet normal 0.866025403784439 0.5 0.0
outer loop
vertex 15.1013179784912 8.71874999999999 0.0
vertex 16.8433315959156 4.5131570989752 54.0
vertex 16.8433315959156 4.5131570989752 0.0
endloop
endfacet
facet normal 0.965925826289068 0.258819045102521 0.0
outer loop
vertex 16.8433315959156 4.5131570989752 54.0
vertex 15.1013179784912 8.71874999999999 0.0
vertex 15.1013179784912 8.71874999999999 54.0
endloop
endfacet
endsolid untitled
